<?xml version="1.0" encoding="UTF-8" standalone="no"?>
<!-- Created with Inkscape (http://www.inkscape.org/) -->

<svg
   xmlns:dc="http://purl.org/dc/elements/1.1/"
   xmlns:cc="http://creativecommons.org/ns#"
   xmlns:rdf="http://www.w3.org/1999/02/22-rdf-syntax-ns#"
   xmlns:svg="http://www.w3.org/2000/svg"
   xmlns="http://www.w3.org/2000/svg"
   xmlns:sodipodi="http://sodipodi.sourceforge.net/DTD/sodipodi-0.dtd"
   xmlns:inkscape="http://www.inkscape.org/namespaces/inkscape"
   width="210mm"
   height="297mm"
   viewBox="0 0 744.09448819 1052.3622047"
   id="svg2"
   version="1.1"
   inkscape:version="0.91 r13725"
   sodipodi:docname="cover.svg">
  <sodipodi:namedview
     id="base"
     pagecolor="#ffffff"
     bordercolor="#666666"
     borderopacity="1.0"
     inkscape:pageopacity="0.0"
     inkscape:pageshadow="2"
     inkscape:zoom="0.49497475"
     inkscape:cx="137.69775"
     inkscape:cy="415.25752"
     inkscape:document-units="px"
     inkscape:current-layer="layer1"
     showgrid="false"
     inkscape:window-width="1600"
     inkscape:window-height="816"
     inkscape:window-x="0"
     inkscape:window-y="148"
     inkscape:window-maximized="1" />
  <defs
     id="defs4">
    <clipPath
       clipPathUnits="userSpaceOnUse"
       id="clipPath4837">
      <rect
         style="opacity:1;fill:#6b6b6b;fill-opacity:1;stroke:none;stroke-width:8.94999981;stroke-miterlimit:4;stroke-dasharray:none;stroke-opacity:1"
         id="rect4839"
         width="272.71872"
         height="280.98291"
         x="303.33606"
         y="247.84779" />
    </clipPath>
  </defs>
  <metadata
     id="metadata7">
    <rdf:RDF>
      <cc:Work
         rdf:about="">
        <dc:format>image/svg+xml</dc:format>
        <dc:type
           rdf:resource="http://purl.org/dc/dcmitype/StillImage" />
        <dc:title />
      </cc:Work>
    </rdf:RDF>
  </metadata>
  <g
     inkscape:label="Layer 1"
     inkscape:groupmode="layer"
     id="layer1">
    <g
       id="g4410"
       transform="translate(115.42857,452.07699)" />
    <g
       id="g4412"
       transform="translate(115.42857,452.07699)" />
    <g
       id="g4414"
       transform="translate(115.42857,452.07699)" />
    <g
       id="g4416"
       transform="translate(115.42857,452.07699)" />
    <g
       id="g4418"
       transform="translate(115.42857,452.07699)" />
    <g
       id="g4420"
       transform="translate(115.42857,452.07699)" />
    <g
       id="g4422"
       transform="translate(115.42857,452.07699)" />
    <g
       id="g4424"
       transform="translate(115.42857,452.07699)" />
    <g
       id="g4426"
       transform="translate(115.42857,452.07699)" />
    <g
       id="g4428"
       transform="translate(115.42857,452.07699)" />
    <g
       id="g4430"
       transform="translate(115.42857,452.07699)" />
    <g
       id="g4432"
       transform="translate(115.42857,452.07699)" />
    <g
       id="g4434"
       transform="translate(115.42857,452.07699)" />
    <g
       id="g4436"
       transform="translate(115.42857,452.07699)" />
    <g
       id="g4438"
       transform="translate(115.42857,452.07699)" />
    <flowRoot
       transform="matrix(0.88434264,0,0,0.88434264,379.55175,805.63184)"
       xml:space="preserve"
       id="flowRoot4147-3"
       style="font-style:normal;font-weight:normal;font-size:21.45509148px;line-height:125%;font-family:sans-serif;text-align:center;letter-spacing:0px;word-spacing:0px;text-anchor:middle;fill:#000000;fill-opacity:1;stroke:none;stroke-width:1px;stroke-linecap:butt;stroke-linejoin:miter;stroke-opacity:1"><flowRegion
         id="flowRegion4149-4"><rect
           style="text-align:center;text-anchor:middle"
           id="rect4151-6"
           width="358.76151"
           height="542.00879"
           x="-31.508116"
           y="-33.709179" /></flowRegion><flowPara
         id="flowPara4153-2"
         style="font-style:normal;font-variant:normal;font-weight:normal;font-stretch:normal;font-family:'Linden Hill';-inkscape-font-specification:'Linden Hill';text-align:center;text-anchor:middle" /><flowPara
         style="font-style:normal;font-variant:normal;font-weight:normal;font-stretch:normal;font-size:53.63772964px;font-family:Fanwood;-inkscape-font-specification:Fanwood;text-align:center;text-anchor:middle"
         id="flowPara4230-0">A Python Primer for Mathematics</flowPara><flowPara
         style="font-style:normal;font-variant:normal;font-weight:normal;font-stretch:normal;font-size:53.63772964px;font-family:Fanwood;-inkscape-font-specification:Fanwood;text-align:center;text-anchor:middle"
         id="flowPara4232-0" /><flowPara
         style="font-style:normal;font-variant:normal;font-weight:normal;font-stretch:normal;font-size:53.63772964px;font-family:Fanwood;-inkscape-font-specification:Fanwood;text-align:center;text-anchor:middle"
         id="flowPara4206-0" /><flowPara
         style="font-style:normal;font-variant:normal;font-weight:normal;font-stretch:normal;font-size:53.63772964px;font-family:Fanwood;-inkscape-font-specification:Fanwood;text-align:center;text-anchor:middle"
         id="flowPara4208-9" /><flowPara
         style="font-style:normal;font-variant:normal;font-weight:normal;font-stretch:normal;font-size:53.63772964px;font-family:Fanwood;-inkscape-font-specification:Fanwood;text-align:center;text-anchor:middle"
         id="flowPara4194-8" /><flowPara
         id="flowPara4155-0"
         style="font-style:normal;font-variant:normal;font-weight:normal;font-stretch:normal;font-size:53.63772964px;font-family:Fanwood;-inkscape-font-specification:Fanwood;text-align:center;text-anchor:middle" /></flowRoot>    <g
       id="g6132-8-7"
       transform="matrix(2.195989,0,0,2.195989,-732.93449,-473.3212)">
      <g
         style="font-style:normal;font-variant:normal;font-weight:normal;font-stretch:normal;letter-spacing:normal;word-spacing:normal;text-anchor:start;fill:none;fill-opacity:1;fill-rule:evenodd;stroke:#000000;stroke-width:0.07895803;stroke-linecap:butt;stroke-linejoin:miter;stroke-miterlimit:10.43299961;stroke-dasharray:none;stroke-dashoffset:0;stroke-opacity:1"
         id="content-2-3"
         transform="matrix(8.5203967,0,0,-8.520396,-3515.3896,3949.712)"
         xml:space="preserve"
         stroke-miterlimit="10.433"
         font-style="normal"
         font-variant="normal"
         font-weight="normal"
         font-stretch="normal"
         font-size-adjust="none"
         letter-spacing="normal"
         word-spacing="normal"><path
           style="fill:#000000;stroke-width:0"
           inkscape:connector-curvature="0"
           d="m 464.47,397.53 -0.01,-0.03 -0.01,-0.03 -0.01,-0.03 -0.01,-0.02 -0.01,-0.06 -0.02,-0.05 -0.01,-0.05 -0.02,-0.04 -0.01,-0.04 -0.01,-0.04 -0.02,-0.04 -0.01,-0.04 -0.01,-0.03 -0.01,-0.03 -0.01,-0.03 -0.01,-0.03 0,-0.03 -0.01,-0.03 -0.01,-0.02 0,-0.03 -0.01,-0.02 0,-0.02 -0.01,-0.02 0,-0.02 -0.01,-0.05 0,-0.04 -0.01,-0.04 0,-0.04 0,-0.02 0,-0.02 c 0,-1.1 0.94,-1.4 1.44,-1.4 0.25,0 1.35,0.15 1.85,1.3 0.15,0.4 0.4,2.04 1.74,9.11 0.45,-0.05 0.8,-0.1 1.64,-0.1 8.27,0 15.95,7.82 15.95,15.69 l -1.4,-1.09 c 0,-5.63 -6.42,-11.71 -14.1,-11.71 l 0,0 c -0.39,0 -0.5,0 -0.89,0.05 -0.6,0 -0.65,0.05 -0.65,0.2 0,0.1 0.84,4.63 0.99,5.38 1.55,6.38 5.43,11.16 9.87,11.16 3.43,0 4.78,-2.69 4.78,-5.08 l 1.4,1.09 c 0,3.89 -1.95,6.88 -5.68,6.88 -7.23,0 -10.21,-9.66 -13.2,-19.38 -5.39,1 -8.17,3.79 -8.17,7.37 0,1.4 1.14,6.88 4.13,10.31 0.4,0.45 0.4,0.55 0.4,0.65 0,0.2 -0.1,0.5 -0.6,0.5 -1.39,0 -5.23,-7.22 -5.23,-12.01 0,-4.68 3.29,-8.32 8.62,-9.56 z"
           id="path4900-6-5" /></g>      <path
         sodipodi:nodetypes="ccc"
         style="fill:none;fill-rule:evenodd;stroke:#000000;stroke-width:3.67074418;stroke-linecap:round;stroke-linejoin:miter;stroke-miterlimit:4;stroke-dasharray:none;stroke-opacity:1"
         d="m 454.01651,567.40345 -11.11868,22.35566 -17.01057,10.47815"
         id="path4957-7-0"
         inkscape:connector-curvature="0" />
      <path
         sodipodi:nodetypes="cc"
         style="fill:none;fill-rule:evenodd;stroke:#000000;stroke-width:3.67074418;stroke-linecap:round;stroke-linejoin:miter;stroke-miterlimit:4;stroke-dasharray:none;stroke-opacity:1"
         d="m 442.53786,590.03257 -1.66745,20.01183"
         id="path4959-5-4"
         inkscape:connector-curvature="0" />
      <ellipse
         style="opacity:1;fill:#ffffff;fill-opacity:1;stroke:none;stroke-width:8.69999981;stroke-linecap:round;stroke-miterlimit:4;stroke-dasharray:none;stroke-opacity:1"
         id="path4961-9-1"
         cx="449.83353"
         cy="562.56348"
         rx="3.5162182"
         ry="3.2970712" />
      <ellipse
         style="opacity:1;fill:#ffffff;fill-opacity:1;stroke:none;stroke-width:8.69999981;stroke-linecap:round;stroke-miterlimit:4;stroke-dasharray:none;stroke-opacity:1"
         id="path4961-5-3-9"
         cx="690.10236"
         cy="239.83614"
         rx="3.5162182"
         ry="4.6532574"
         transform="matrix(0.84835909,0.52942124,-0.52942124,0.84835909,0,0)" />
    </g>
  </g>
</svg>
