<?xml version="1.0" encoding="UTF-8" standalone="no"?>
<!-- Created with Inkscape (http://www.inkscape.org/) -->

<svg
   xmlns:dc="http://purl.org/dc/elements/1.1/"
   xmlns:cc="http://creativecommons.org/ns#"
   xmlns:rdf="http://www.w3.org/1999/02/22-rdf-syntax-ns#"
   xmlns:svg="http://www.w3.org/2000/svg"
   xmlns="http://www.w3.org/2000/svg"
   xmlns:sodipodi="http://sodipodi.sourceforge.net/DTD/sodipodi-0.dtd"
   xmlns:inkscape="http://www.inkscape.org/namespaces/inkscape"
   width="210mm"
   height="297mm"
   viewBox="0 0 744.09448819 1052.3622047"
   id="svg2"
   version="1.1"
   inkscape:version="0.91 r13725"
   sodipodi:docname="cover.svg">
  <sodipodi:namedview
     id="base"
     pagecolor="#ffffff"
     bordercolor="#666666"
     borderopacity="1.0"
     inkscape:pageopacity="0.0"
     inkscape:pageshadow="2"
     inkscape:zoom="0.49497475"
     inkscape:cx="495.29175"
     inkscape:cy="253.63311"
     inkscape:document-units="px"
     inkscape:current-layer="layer1"
     showgrid="false"
     inkscape:window-width="1600"
     inkscape:window-height="816"
     inkscape:window-x="0"
     inkscape:window-y="148"
     inkscape:window-maximized="1" />
  <defs
     id="defs4">
    <clipPath
       clipPathUnits="userSpaceOnUse"
       id="clipPath4837">
      <rect
         style="opacity:1;fill:#6b6b6b;fill-opacity:1;stroke:none;stroke-width:8.94999981;stroke-miterlimit:4;stroke-dasharray:none;stroke-opacity:1"
         id="rect4839"
         width="272.71872"
         height="280.98291"
         x="303.33606"
         y="247.84779" />
    </clipPath>
  </defs>
  <metadata
     id="metadata7">
    <rdf:RDF>
      <cc:Work
         rdf:about="">
        <dc:format>image/svg+xml</dc:format>
        <dc:type
           rdf:resource="http://purl.org/dc/dcmitype/StillImage" />
        <dc:title></dc:title>
      </cc:Work>
    </rdf:RDF>
  </metadata>
  <g
     inkscape:label="Layer 1"
     inkscape:groupmode="layer"
     id="layer1">
    <g
       id="g4410"
       transform="translate(115.42857,452.07699)" />
    <g
       id="g4412"
       transform="translate(115.42857,452.07699)" />
    <g
       id="g4414"
       transform="translate(115.42857,452.07699)" />
    <g
       id="g4416"
       transform="translate(115.42857,452.07699)" />
    <g
       id="g4418"
       transform="translate(115.42857,452.07699)" />
    <g
       id="g4420"
       transform="translate(115.42857,452.07699)" />
    <g
       id="g4422"
       transform="translate(115.42857,452.07699)" />
    <g
       id="g4424"
       transform="translate(115.42857,452.07699)" />
    <g
       id="g4426"
       transform="translate(115.42857,452.07699)" />
    <g
       id="g4428"
       transform="translate(115.42857,452.07699)" />
    <g
       id="g4430"
       transform="translate(115.42857,452.07699)" />
    <g
       id="g4432"
       transform="translate(115.42857,452.07699)" />
    <g
       id="g4434"
       transform="translate(115.42857,452.07699)" />
    <g
       id="g4436"
       transform="translate(115.42857,452.07699)" />
    <g
       id="g4438"
       transform="translate(115.42857,452.07699)" />
    <flowRoot
       transform="matrix(0.88434264,0,0,0.88434264,379.55175,805.63184)"
       xml:space="preserve"
       id="flowRoot4147-3"
       style="font-style:normal;font-weight:normal;font-size:21.45509148px;line-height:125%;font-family:sans-serif;text-align:center;letter-spacing:0px;word-spacing:0px;text-anchor:middle;fill:#000000;fill-opacity:1;stroke:none;stroke-width:1px;stroke-linecap:butt;stroke-linejoin:miter;stroke-opacity:1"><flowRegion
         id="flowRegion4149-4"><rect
           style="text-align:center;text-anchor:middle"
           id="rect4151-6"
           width="358.76151"
           height="542.00879"
           x="-31.508116"
           y="-33.709179" /></flowRegion><flowPara
         id="flowPara4153-2"
         style="font-style:normal;font-variant:normal;font-weight:normal;font-stretch:normal;font-family:'Linden Hill';-inkscape-font-specification:'Linden Hill';text-align:center;text-anchor:middle" /><flowPara
         style="font-style:normal;font-variant:normal;font-weight:normal;font-stretch:normal;font-size:53.63772964px;font-family:Fanwood;-inkscape-font-specification:Fanwood;text-align:center;text-anchor:middle"
         id="flowPara4230-0">A Python Primer for Mathematics</flowPara><flowPara
         style="font-style:normal;font-variant:normal;font-weight:normal;font-stretch:normal;font-size:53.63772964px;font-family:Fanwood;-inkscape-font-specification:Fanwood;text-align:center;text-anchor:middle"
         id="flowPara4232-0" /><flowPara
         style="font-style:normal;font-variant:normal;font-weight:normal;font-stretch:normal;font-size:53.63772964px;font-family:Fanwood;-inkscape-font-specification:Fanwood;text-align:center;text-anchor:middle"
         id="flowPara4206-0" /><flowPara
         style="font-style:normal;font-variant:normal;font-weight:normal;font-stretch:normal;font-size:53.63772964px;font-family:Fanwood;-inkscape-font-specification:Fanwood;text-align:center;text-anchor:middle"
         id="flowPara4208-9" /><flowPara
         style="font-style:normal;font-variant:normal;font-weight:normal;font-stretch:normal;font-size:53.63772964px;font-family:Fanwood;-inkscape-font-specification:Fanwood;text-align:center;text-anchor:middle"
         id="flowPara4194-8" /><flowPara
         id="flowPara4155-0"
         style="font-style:normal;font-variant:normal;font-weight:normal;font-stretch:normal;font-size:53.63772964px;font-family:Fanwood;-inkscape-font-specification:Fanwood;text-align:center;text-anchor:middle" /></flowRoot>    <g
       id="g6271"
       transform="matrix(0.79428761,0,0,0.79428761,2155.3561,-918.58289)">
      <g
         transform="matrix(2.7647278,0,0,2.7647278,-3636.3284,560.57993)"
         id="g6132-8-7">
        <g
           word-spacing="normal"
           letter-spacing="normal"
           font-size-adjust="none"
           font-stretch="normal"
           font-weight="normal"
           font-variant="normal"
           font-style="normal"
           stroke-miterlimit="10.433"
           xml:space="preserve"
           transform="matrix(8.5203967,0,0,-8.520396,-3515.3896,3949.712)"
           id="content-2-3"
           style="font-style:normal;font-variant:normal;font-weight:normal;font-stretch:normal;letter-spacing:normal;word-spacing:normal;text-anchor:start;fill:none;fill-opacity:1;fill-rule:evenodd;stroke:#000000;stroke-width:0.07895803;stroke-linecap:butt;stroke-linejoin:miter;stroke-miterlimit:10.43299961;stroke-dasharray:none;stroke-dashoffset:0;stroke-opacity:1"><path
             id="path4900-6-5"
             d="m 464.47,397.53 -0.01,-0.03 -0.01,-0.03 -0.01,-0.03 -0.01,-0.02 -0.01,-0.06 -0.02,-0.05 -0.01,-0.05 -0.02,-0.04 -0.01,-0.04 -0.01,-0.04 -0.02,-0.04 -0.01,-0.04 -0.01,-0.03 -0.01,-0.03 -0.01,-0.03 -0.01,-0.03 0,-0.03 -0.01,-0.03 -0.01,-0.02 0,-0.03 -0.01,-0.02 0,-0.02 -0.01,-0.02 0,-0.02 -0.01,-0.05 0,-0.04 -0.01,-0.04 0,-0.04 0,-0.02 0,-0.02 c 0,-1.1 0.94,-1.4 1.44,-1.4 0.25,0 1.35,0.15 1.85,1.3 0.15,0.4 0.4,2.04 1.74,9.11 0.45,-0.05 0.8,-0.1 1.64,-0.1 8.27,0 15.95,7.82 15.95,15.69 l -1.4,-1.09 c 0,-5.63 -6.42,-11.71 -14.1,-11.71 l 0,0 c -0.39,0 -0.5,0 -0.89,0.05 -0.6,0 -0.65,0.05 -0.65,0.2 0,0.1 0.84,4.63 0.99,5.38 1.55,6.38 5.43,11.16 9.87,11.16 3.43,0 4.78,-2.69 4.78,-5.08 l 1.4,1.09 c 0,3.89 -1.95,6.88 -5.68,6.88 -7.23,0 -10.21,-9.66 -13.2,-19.38 -5.39,1 -8.17,3.79 -8.17,7.37 0,1.4 1.14,6.88 4.13,10.31 0.4,0.45 0.4,0.55 0.4,0.65 0,0.2 -0.1,0.5 -0.6,0.5 -1.39,0 -5.23,-7.22 -5.23,-12.01 0,-4.68 3.29,-8.32 8.62,-9.56 z"
             inkscape:connector-curvature="0"
             style="fill:#000000;stroke-width:0" /></g>        <path
           inkscape:connector-curvature="0"
           id="path4957-7-0"
           d="m 454.01651,567.40345 -11.11868,22.35566 -17.01057,10.47815"
           style="fill:none;fill-rule:evenodd;stroke:#000000;stroke-width:3.67074418;stroke-linecap:round;stroke-linejoin:miter;stroke-miterlimit:4;stroke-dasharray:none;stroke-opacity:1"
           sodipodi:nodetypes="ccc" />
        <path
           inkscape:connector-curvature="0"
           id="path4959-5-4"
           d="m 442.53786,590.03257 -1.66745,20.01183"
           style="fill:none;fill-rule:evenodd;stroke:#000000;stroke-width:3.67074418;stroke-linecap:round;stroke-linejoin:miter;stroke-miterlimit:4;stroke-dasharray:none;stroke-opacity:1"
           sodipodi:nodetypes="cc" />
        <ellipse
           ry="3.2970712"
           rx="3.5162182"
           cy="562.56348"
           cx="449.83353"
           id="path4961-9-1"
           style="opacity:1;fill:#ffffff;fill-opacity:1;stroke:none;stroke-width:8.69999981;stroke-linecap:round;stroke-miterlimit:4;stroke-dasharray:none;stroke-opacity:1" />
        <ellipse
           transform="matrix(0.84835909,0.52942124,-0.52942124,0.84835909,0,0)"
           ry="4.6532574"
           rx="3.5162182"
           cy="239.83614"
           cx="690.10236"
           id="path4961-5-3-9"
           style="opacity:1;fill:#ffffff;fill-opacity:1;stroke:none;stroke-width:8.69999981;stroke-linecap:round;stroke-miterlimit:4;stroke-dasharray:none;stroke-opacity:1" />
      </g>
      <g
         style="font-style:normal;font-variant:normal;font-weight:normal;font-stretch:normal;letter-spacing:normal;word-spacing:normal;text-anchor:start;fill:none;fill-opacity:1;fill-rule:evenodd;stroke:#000000;stroke-linecap:butt;stroke-linejoin:miter;stroke-miterlimit:10.43299961;stroke-dasharray:none;stroke-dashoffset:0;stroke-opacity:1"
         id="g5743-9-4"
         transform="matrix(6.1553378,0,0,-6.1553378,-5267.4796,4146.5465)"
         xml:space="preserve"
         stroke-miterlimit="10.433"
         font-style="normal"
         font-variant="normal"
         font-weight="normal"
         font-stretch="normal"
         font-size-adjust="none"
         letter-spacing="normal"
         word-spacing="normal"><path
           style="fill:#000000;stroke-width:0"
           inkscape:connector-curvature="0"
           d="m 467.51,423.48 0.02,0.1 0.03,0.11 0.02,0.11 0.03,0.11 0.03,0.12 0.03,0.12 0.06,0.24 0.06,0.25 0.06,0.25 0.07,0.24 0.05,0.25 0.03,0.11 0.03,0.12 0.03,0.11 0.02,0.11 0.03,0.1 0.02,0.1 0.02,0.1 0.02,0.09 0.02,0.08 0.02,0.07 0.01,0.07 0.01,0.07 0.01,0.05 0.01,0.05 0,0.03 0,0.02 0,0.01 c 0,0.85 -0.59,1.35 -1.44,1.35 -0.15,0 -1.54,-0.05 -1.99,-1.8 l -7.18,-28.84 c -0.14,-0.59 -0.14,-0.7 -0.14,-0.79 0,-0.75 0.54,-1.35 1.39,-1.35 1.04,0 1.64,0.9 1.74,1.05 0.2,0.44 0.85,3.03 2.74,10.71 1.59,-1.35 3.84,-1.55 4.83,-1.55 3.49,0 5.43,2.25 6.63,3.64 0.45,-2.24 2.29,-3.64 4.48,-3.64 1.74,0 2.89,1.15 3.69,2.74 0.84,1.79 1.49,4.83 1.49,4.93 0,0.5 -0.45,0.5 -0.6,0.5 -0.49,0 -0.54,-0.2 -0.69,-0.89 -0.85,-3.24 -1.75,-6.18 -3.79,-6.18 -1.34,0 -1.49,1.29 -1.49,2.29 0,1.09 0.6,3.44 0.99,5.18 l 1.4,5.38 c 0.15,0.75 0.65,2.64 0.85,3.39 0.25,1.14 0.74,3.03 0.74,3.33 0,0.9 -0.69,1.35 -1.44,1.35 -0.25,0 -1.55,-0.05 -1.94,-1.74 l -2.34,-9.32 c -0.6,-2.49 -1.15,-4.58 -1.3,-5.08 -0.05,-0.25 -2.44,-4.78 -6.48,-4.78 -2.49,0 -3.68,1.64 -3.68,4.33 0,1.45 0.35,2.84 0.69,4.24 z"
           id="path5745-9-1" /></g>      <path
         style="font-style:normal;font-variant:normal;font-weight:normal;font-stretch:normal;letter-spacing:normal;word-spacing:normal;text-anchor:start;fill:#000000;fill-opacity:1;fill-rule:evenodd;stroke:#000000;stroke-width:0;stroke-linecap:butt;stroke-linejoin:miter;stroke-miterlimit:10.43299961;stroke-dasharray:none;stroke-dashoffset:0;stroke-opacity:1"
         inkscape:connector-curvature="0"
         d="m -2062.9029,1665.5696 0,-1.6536 -0.046,-1.6536 -0.092,-1.5617 -0.092,-1.5618 -0.3216,-3.0316 -0.3675,-2.8479 -0.5512,-2.756 -0.5971,-2.6181 -0.689,-2.4805 -0.8268,-2.3425 -0.8727,-2.2048 -1.0106,-2.113 -1.0105,-1.9751 -1.1483,-1.8833 -1.1943,-1.7454 -1.2402,-1.6536 -1.3321,-1.5159 -1.3779,-1.4239 -1.3781,-1.3321 -1.4699,-1.1943 -1.5158,-1.1024 -1.5617,-1.0105 -1.5617,-0.9186 -1.5617,-0.8269 -1.6536,-0.7349 -1.6077,-0.643 -1.6536,-0.5972 -1.6537,-0.4593 -1.6536,-0.4134 -1.6536,-0.3216 -1.6536,-0.2296 -1.6536,-0.1837 -1.6076,-0.092 -1.6076,-0.046 -0.2297,5.0526 c 22.6451,0 22.6451,29.9945 22.6451,47.8167 0,8.4517 0,21.7265 0.4594,25.6308 l 0,0 c -20.1189,17.5925 -37.7573,20.1188 -46.8981,20.1188 -13.734,0 -20.5781,-10.2891 -20.5781,-24.9418 0,-11.2077 5.9254,-35.9199 13.2748,-47.587 10.7484,-16.7198 23.1044,-21.0375 31.0969,-21.0375 l 0.2297,-5.0526 c -31.3266,0 -61.5508,32.7504 -61.5508,64.9957 0,21.2671 13.734,38.6759 37.0683,38.6759 14.423,0 30.9131,-5.2823 48.276,-19.2461 2.9856,12.1264 10.5187,19.2461 20.8537,19.2461 12.1264,0 19.2001,-12.5858 19.2001,-16.2605 0,-1.6076 -1.3779,-2.2966 -2.756,-2.2966 -1.6076,0 -2.2966,0.689 -2.9857,2.2966 -4.088,11.2078 -12.3101,11.2078 -12.8153,11.2078 -7.0738,0 -7.0738,-17.8222 -7.0738,-23.3342 0,-4.823 0,-5.2364 2.2967,-7.9924 21.4968,-27.0088 26.3198,-53.5583 26.3198,-53.788 0,-0.4593 -0.2297,-2.2966 -2.756,-2.2966 -2.2967,0 -2.2967,0.689 -3.445,4.823 -4.0881,14.423 -11.6671,31.7859 -22.4155,45.2903 z"
         id="path5983-7-4" />
    </g>
  </g>
</svg>
